<svg width="457" height="108" viewBox="0 0 457 108" fill="none" xmlns="http://www.w3.org/2000/svg">
<path d="M226.434 45.3579C208.284 45.3579 194.684 59.0679 194.684 76.5179C194.684 93.9679 208.284 107.678 226.434 107.678C244.584 107.678 258.184 93.9679 258.184 76.5179C258.184 59.0679 244.574 45.3579 226.434 45.3579ZM226.434 94.3579C217.714 94.3579 210.734 86.9779 210.734 76.5079C210.734 66.0379 217.734 58.6579 226.434 58.6579C235.134 58.6579 242.134 66.0379 242.134 76.5079C242.134 86.9779 235.154 94.3679 226.434 94.3679V94.3579Z" fill="#00AB5A"/>
<path d="M342.534 46.9579L327.884 46.8679C327.685 46.8647 327.491 46.9323 327.337 47.0587C327.183 47.1851 327.079 47.362 327.044 47.5579L318.384 90.2279L309.744 47.5479C309.702 47.3529 309.596 47.178 309.441 47.0525C309.286 46.9269 309.093 46.8582 308.894 46.8579H292.894C292.696 46.8586 292.504 46.9276 292.351 47.0534C292.198 47.1791 292.093 47.3538 292.054 47.5479L283.414 90.2279L274.754 47.5579C274.716 47.3612 274.61 47.1841 274.455 47.0578C274.299 46.9316 274.104 46.8643 273.904 46.8679L259.254 46.9579C259.129 46.9574 259.006 46.9843 258.893 47.0367C258.78 47.0892 258.68 47.1658 258.6 47.2612C258.519 47.3566 258.461 47.4685 258.429 47.5889C258.397 47.7093 258.392 47.8353 258.414 47.9579L270.134 105.558C270.173 105.754 270.28 105.93 270.435 106.056C270.59 106.182 270.784 106.25 270.984 106.248L291.554 106.148C291.752 106.147 291.944 106.078 292.097 105.952C292.25 105.827 292.355 105.652 292.394 105.458L300.904 62.9179L309.404 105.458C309.445 105.651 309.55 105.825 309.703 105.95C309.855 106.076 310.046 106.145 310.244 106.148L330.824 106.248C331.023 106.246 331.215 106.176 331.369 106.051C331.523 105.926 331.631 105.752 331.674 105.558L343.394 47.9579C343.414 47.8338 343.407 47.7068 343.373 47.5857C343.339 47.4646 343.279 47.3524 343.197 47.2571C343.115 47.1617 343.013 47.0855 342.899 47.0338C342.784 46.9822 342.659 46.9562 342.534 46.9579Z" fill="#00AB5A"/>
<path d="M406.334 69.8776C402.884 52.8776 387.544 42.4576 369.334 46.1676C351.634 49.7676 340.744 65.4376 344.254 82.5176C347.764 99.5976 364.194 110.518 381.854 106.908C395.994 104.038 402.674 96.1776 405.484 89.4876C405.511 89.4327 405.535 89.3759 405.554 89.3176C405.554 89.3176 405.914 88.4076 406.104 87.8776C406.144 87.7484 406.156 87.6119 406.138 87.4778C406.12 87.3436 406.072 87.2151 405.999 87.1015C405.925 86.9878 405.827 86.8918 405.712 86.8202C405.598 86.7487 405.468 86.7034 405.334 86.6876L391.704 83.9176C391.477 83.8452 391.231 83.8655 391.019 83.9742C390.807 84.0829 390.647 84.2711 390.574 84.4976L390.504 84.7376C390.186 85.8095 389.696 86.8227 389.054 87.7376C387.901 89.4084 386.428 90.8336 384.72 91.9306C383.012 93.0275 381.103 93.7743 379.104 94.1276C371.664 95.4476 364.104 90.7776 361.474 82.5476L407.064 73.2676L406.334 69.8776ZM360.044 72.7676C360.284 69.4882 361.585 66.3761 363.75 63.901C365.914 61.426 368.826 59.7224 372.044 59.0476C375.208 58.3354 378.521 58.7437 381.417 60.2028C384.313 61.6619 386.613 64.0812 387.924 67.0476L360.044 72.7676Z" fill="#00AB5A"/>
<path d="M455.444 48.1878C452.685 47.2277 449.785 46.7376 446.864 46.7378C439.334 46.7378 432.584 50.4478 427.514 55.8678V47.5978C427.514 47.3697 427.423 47.151 427.262 46.9897C427.101 46.8284 426.882 46.7378 426.654 46.7378H412.324C412.096 46.7404 411.879 46.8318 411.719 46.9926C411.558 47.1533 411.466 47.3705 411.464 47.5978V105.318C411.466 105.545 411.558 105.762 411.719 105.923C411.879 106.084 412.096 106.175 412.324 106.178H426.654C426.767 106.178 426.879 106.156 426.983 106.112C427.087 106.069 427.182 106.006 427.262 105.926C427.342 105.846 427.405 105.751 427.448 105.647C427.492 105.543 427.514 105.431 427.514 105.318V83.7878C427.514 83.7878 427.514 83.7078 427.514 83.6678C427.514 83.6278 427.514 83.5778 427.514 83.5378V77.9778C427.594 67.5978 434.514 60.6978 443.214 60.6978C446.332 60.6621 449.383 61.5988 451.944 63.3778C452.062 63.4539 452.197 63.4999 452.337 63.5117C452.477 63.5235 452.618 63.5008 452.747 63.4455C452.877 63.3902 452.99 63.3041 453.079 63.1947C453.167 63.0853 453.227 62.9558 453.254 62.8178L456.004 49.1878C456.043 48.9818 456.009 48.7686 455.906 48.5856C455.804 48.4027 455.64 48.2618 455.444 48.1878Z" fill="#00AB5A"/>
<path d="M162.574 45.3578C154.744 45.3578 148.044 49.1278 143.234 54.6978V25.6178C143.231 25.3905 143.14 25.1733 142.979 25.0126C142.818 24.8519 142.601 24.7604 142.374 24.7578H128.044C127.816 24.7578 127.597 24.8484 127.436 25.0097C127.274 25.171 127.184 25.3897 127.184 25.6178V105.308C127.182 105.421 127.204 105.534 127.247 105.638C127.289 105.743 127.353 105.839 127.433 105.919C127.513 105.999 127.608 106.062 127.713 106.105C127.818 106.148 127.93 106.169 128.044 106.168H142.374C142.601 106.165 142.818 106.074 142.979 105.913C143.14 105.752 143.231 105.535 143.234 105.308V97.4378C148.094 103.438 154.864 107.698 162.744 107.698C180.334 107.698 190.674 93.2278 190.674 75.7778C190.674 58.3278 178.634 45.3578 162.574 45.3578ZM158.934 94.4378C150.254 94.4378 143.254 87.0378 143.254 76.5678C143.254 66.0978 150.254 58.7278 158.954 58.7278C167.654 58.7278 174.654 66.0978 174.654 76.5678C174.654 87.0378 167.654 94.4378 158.934 94.4378Z" fill="#00AB5A"/>
<path d="M80.3038 94.3077L88.0938 86.6077C92.6291 82.0665 95.1765 75.9108 95.1765 69.4927C95.1765 63.0747 92.6291 56.919 88.0938 52.3777L82.4138 46.7877L87.1338 42.0777C91.687 38.0305 94.537 32.4078 95.1094 26.3428C95.6819 20.2777 93.9342 14.2211 90.2186 9.3934C86.503 4.56568 81.0957 1.32569 75.0863 0.326307C69.0768 -0.673076 62.9119 0.642429 57.8338 4.00775C57.4405 4.26775 57.0605 4.53775 56.6938 4.81775C43.3738 14.4377 39.2538 25.2477 39.2538 25.2477C36.7848 31.6451 36.7492 38.726 39.1538 45.1477C39.1918 45.2261 39.2497 45.2931 39.3216 45.3422C39.3935 45.3913 39.477 45.4208 39.5638 45.4277C39.8338 45.4277 39.9638 45.2077 40.0638 44.9777C40.7651 43.1879 41.8546 41.5759 43.2538 40.2577L47.1538 36.4377L49.2538 34.3077C51.6214 39.3207 55.6339 43.372 60.6238 45.7877L0.253791 106.178C0.132751 106.298 0.0502327 106.452 0.0167341 106.619C-0.0167644 106.786 0.000271089 106.96 0.0656748 107.117C0.131078 107.275 0.241893 107.41 0.384017 107.504C0.526141 107.598 0.69315 107.649 0.863791 107.648H7.86379C12.2336 107.623 16.5544 106.726 20.5728 105.009C24.5911 103.292 28.2259 100.789 31.2638 97.6478L70.9538 58.1477L76.8338 63.8977C78.3409 65.4119 79.187 67.4614 79.187 69.5977C79.187 71.7341 78.3409 73.7836 76.8338 75.2977L75.6938 76.3677L60.0838 92.0378C58.59 93.5385 57.7521 95.5703 57.7538 97.6877V105.438C57.7538 105.666 57.8444 105.885 58.0057 106.046C58.167 106.207 58.3857 106.298 58.6138 106.298H98.6138C98.7718 106.298 98.9269 106.254 99.0618 106.172C99.1967 106.09 99.3064 105.972 99.3787 105.831C99.4511 105.691 99.4833 105.533 99.4718 105.375C99.4604 105.218 99.4057 105.066 99.3138 104.938C97.1816 101.818 94.3555 99.2344 91.0572 97.3901C87.759 95.5458 84.0783 94.4907 80.3038 94.3077ZM79.1138 24.0877C79.1138 25.67 78.6446 27.2167 77.7655 28.5323C76.8865 29.8479 75.6371 30.8733 74.1753 31.4788C72.7135 32.0843 71.1049 32.2427 69.5531 31.934C68.0012 31.6253 66.5758 30.8634 65.4569 29.7446C64.3381 28.6258 63.5762 27.2003 63.2675 25.6485C62.9588 24.0966 63.1173 22.4881 63.7228 21.0263C64.3283 19.5645 65.3536 18.315 66.6692 17.436C67.9848 16.5569 69.5315 16.0877 71.1138 16.0877C73.2355 16.0877 75.2704 16.9306 76.7706 18.4309C78.2709 19.9312 79.1138 21.966 79.1138 24.0877Z" fill="#00AB5A"/>
</svg>
